<?xml version="1.0" standalone="no"?>
<!DOCTYPE svg PUBLIC "-//W3C//DTD SVG 20010904//EN"
 "http://www.w3.org/TR/2001/REC-SVG-20010904/DTD/svg10.dtd">
<svg version="1.0" xmlns="http://www.w3.org/2000/svg"
 width="260.000000pt" height="260.000000pt" viewBox="0 0 260.000000 260.000000"
 preserveAspectRatio="xMidYMid meet">
<metadata>
Created by potrace 1.11, written by Peter Selinger 2001-2013
</metadata>
<g transform="translate(0.000000,260.000000) scale(0.100000,-0.100000)"
fill="#000000" stroke="none">
<path d="M1060 2590 c-8 -5 -12 -12 -9 -15 4 -3 12 1 19 10 14 17 11 19 -10 5z"/>
<path d="M1083 2582 c-6 -11 -23 -19 -37 -19 -14 0 -23 3 -20 8 3 5 0 9 -5 9
-6 0 -11 -4 -11 -8 0 -5 -6 -9 -12 -10 -7 0 -32 -3 -56 -5 -23 -2 -41 -8 -40
-13 2 -5 9 -8 15 -8 7 1 10 -2 8 -6 -3 -5 -13 -9 -23 -9 -52 1 -114 -9 -124
-19 -7 -7 -8 -12 -2 -12 5 0 15 5 21 11 7 7 12 6 16 -5 4 -9 3 -15 -1 -14 -18
5 -112 -14 -118 -23 -4 -7 1 -9 14 -5 11 4 23 3 25 -1 5 -8 -17 -13 -62 -16
-8 0 -16 -9 -19 -19 -2 -10 -14 -19 -28 -19 -43 -2 -47 -4 -51 -16 -6 -16 9
-17 25 -1 9 9 12 8 12 -5 0 -9 -3 -16 -7 -16 -24 4 -53 -2 -49 -10 4 -5 -2 -7
-13 -4 -10 3 -22 -1 -26 -8 -5 -8 -4 -10 3 -5 7 4 12 1 12 -9 0 -12 -6 -15
-20 -10 -16 5 -20 2 -20 -14 0 -19 -10 -26 -33 -22 -7 1 -11 -14 -8 -36 2 -16
-11 -17 -27 -1 -7 7 -12 8 -13 3 -1 -6 -2 -19 -3 -30 0 -11 -7 -20 -13 -21 -7
-1 -17 -2 -22 -3 -5 0 -7 -10 -4 -21 4 -15 1 -18 -16 -15 -12 2 -22 0 -22 -6
-1 -5 -2 -15 -3 -21 -1 -7 -9 -12 -18 -12 -10 1 -19 -8 -22 -22 -4 -15 -14
-24 -26 -24 -13 0 -18 -6 -15 -20 2 -11 0 -22 -5 -25 -5 -3 -7 -12 -3 -20 6
-18 -13 -20 -23 -3 -4 6 -3 8 3 5 5 -3 10 0 10 8 0 8 -4 15 -9 15 -9 0 -10 -3
-12 -45 -1 -19 -8 -31 -19 -33 -15 -3 -21 -14 -18 -34 0 -5 -4 -8 -10 -8 -8 0
-9 -4 0 -13 13 -16 5 -27 -21 -27 -10 0 -18 -6 -17 -12 1 -7 1 -27 0 -45 -1
-25 -5 -31 -19 -28 -19 3 -19 1 -23 -80 -2 -25 -7 -35 -19 -35 -17 0 -23 -43
-23 -182 0 -41 -4 -59 -15 -63 -11 -4 -12 -2 -4 8 6 7 7 19 3 26 -15 24 -20
-13 -20 -159 0 -122 2 -140 15 -130 8 7 15 11 15 9 3 -8 9 -135 9 -167 -1 -25
3 -32 12 -26 10 6 10 5 1 -7 -6 -8 -11 -26 -10 -41 2 -20 5 -24 15 -16 11 9
11 13 0 20 -10 7 -10 9 2 5 8 -2 16 -18 18 -35 2 -20 7 -30 14 -26 7 5 8 2 3
-6 -13 -21 -12 -57 1 -57 7 0 11 9 9 19 -2 10 0 16 5 13 5 -3 7 -14 5 -25 -2
-11 0 -22 4 -24 4 -3 7 -21 6 -41 0 -24 3 -34 11 -31 19 7 31 -15 29 -52 -2
-28 0 -30 13 -20 13 10 14 10 8 1 -4 -9 -1 -13 10 -13 11 0 15 -6 11 -20 -3
-11 -1 -20 5 -20 5 0 7 -10 3 -22 -6 -23 -6 -22 8 1 12 20 15 21 20 7 4 -9 2
-16 -4 -16 -6 0 -7 -5 -4 -10 4 -6 11 -7 17 -4 6 4 8 -1 3 -15 -5 -18 -3 -22
12 -19 13 2 19 -4 21 -22 2 -14 8 -29 13 -35 7 -7 8 -5 4 6 -4 10 -1 16 8 16
8 0 14 -7 14 -16 0 -35 3 -40 20 -34 12 5 15 2 10 -9 -6 -17 17 -33 41 -29 7
1 12 -4 11 -11 -3 -27 1 -37 15 -32 9 3 18 -6 25 -28 9 -26 14 -30 21 -18 11
17 21 10 23 -17 0 -11 7 -20 14 -20 6 0 10 4 7 8 -2 4 -1 10 4 13 5 3 9 0 10
-7 2 -30 9 -52 15 -49 4 1 10 2 13 2 4 0 1 6 -5 13 -8 10 -7 14 2 14 7 0 14
-9 14 -20 3 -27 10 -32 28 -17 21 17 19 1 -2 -24 -17 -20 -17 -20 0 -7 11 8
17 9 17 3 0 -6 7 -9 15 -6 8 3 22 -1 31 -10 8 -9 20 -13 26 -10 7 4 8 2 4 -4
-4 -6 -13 -9 -21 -5 -8 3 -15 1 -15 -5 0 -5 18 -8 40 -7 39 3 46 -4 41 -37 0
-4 8 -5 19 -3 11 2 22 1 24 -3 2 -4 20 -7 40 -6 20 1 34 -1 32 -5 -3 -4 -1
-13 5 -21 7 -13 9 -13 9 0 0 12 2 12 9 2 4 -7 21 -14 37 -15 18 -2 29 -8 29
-17 0 -11 12 -15 40 -16 45 0 68 -10 60 -25 -4 -5 -1 -9 5 -9 7 0 10 6 7 13
-4 11 9 14 61 13 59 -1 67 -3 64 -19 -3 -17 7 -18 145 -16 152 2 173 4 173 21
0 5 -6 6 -12 1 -16 -10 -58 -11 -58 -2 0 12 23 16 97 15 39 -1 69 2 67 6 -2 3
6 4 18 0 16 -4 19 -2 13 9 -7 12 -6 12 7 1 13 -10 17 -10 21 0 4 10 6 10 6 1
1 -7 5 -13 10 -13 5 0 8 8 7 17 -1 14 8 18 34 20 70 4 85 9 85 29 0 16 7 19
43 16 36 -2 42 1 42 18 0 11 5 20 10 20 6 0 10 -5 10 -10 0 -6 6 -5 14 2 8 7
12 16 10 20 -2 4 0 10 6 13 6 4 9 3 8 -2 -2 -4 2 -8 7 -8 6 0 9 6 9 13 -1 6 3
13 10 13 6 1 16 2 21 4 6 1 20 3 33 3 12 1 22 7 22 13 0 5 -4 8 -8 5 -4 -2
-14 0 -22 6 -12 8 -12 9 3 4 9 -3 17 -1 17 4 0 5 9 7 20 5 11 -2 22 1 25 6 4
5 12 6 18 2 8 -5 8 -2 0 9 -16 18 -5 32 14 17 10 -9 13 -5 13 19 0 28 3 30 26
26 15 -3 23 -1 20 5 -9 14 5 43 18 38 6 -3 17 2 24 9 7 8 8 14 2 14 -5 0 -10
5 -10 11 0 6 6 9 14 6 8 -3 22 1 33 9 10 9 12 12 4 8 -9 -4 -12 -2 -9 6 2 7
12 14 22 16 10 1 24 8 30 15 8 9 8 10 -2 4 -11 -6 -11 -3 -1 13 9 15 17 18 25
11 8 -7 14 -6 19 1 3 5 2 10 -4 10 -6 0 -8 7 -5 15 4 8 15 15 25 15 14 0 18 6
16 23 -1 16 3 21 16 19 9 -2 18 2 18 8 2 16 6 49 8 59 0 5 9 11 18 13 14 3 18
12 25 66 1 6 10 12 20 12 17 0 21 11 21 63 0 9 6 17 13 17 7 0 11 -6 8 -14 -3
-8 -1 -16 3 -19 5 -3 9 6 10 21 0 15 1 47 2 72 1 30 4 40 10 31 5 -7 14 -10
20 -7 15 10 14 49 -1 65 -10 11 -10 13 0 7 13 -8 14 -2 15 81 0 47 2 51 18 42
18 -9 19 1 18 236 0 153 -4 245 -11 245 -5 0 -7 -8 -4 -18 4 -12 1 -19 -7 -19
-9 0 -13 15 -14 46 -1 110 -8 168 -19 164 -7 -2 -14 0 -17 5 -6 8 -18 57 -19
79 -1 6 -8 9 -16 5 -10 -3 -13 -1 -8 6 4 7 3 12 -2 12 -5 0 -8 14 -6 31 4 28
2 30 -13 18 -12 -10 -14 -10 -9 -1 5 8 1 12 -11 13 -10 0 -13 3 -6 6 10 3 10
10 2 25 -6 11 -8 26 -5 34 3 9 1 12 -5 9 -14 -9 -39 14 -32 31 4 10 -2 14 -20
14 -20 0 -25 4 -22 19 2 11 -4 26 -13 33 -10 8 -13 9 -9 1 5 -8 0 -11 -13 -10
-12 1 -16 5 -11 10 12 12 -7 67 -22 64 -7 -1 -12 9 -11 21 1 19 -3 23 -22 19
-23 -4 -43 18 -22 25 6 2 3 9 -6 17 -14 12 -16 11 -16 -5 0 -16 -2 -16 -9 -4
-6 8 -7 18 -4 24 4 5 -2 7 -13 3 -18 -7 -18 -6 -1 7 16 13 15 14 -15 20 -18 3
-38 7 -45 8 -7 1 -12 4 -11 7 2 21 -5 29 -22 26 -16 -3 -20 2 -20 21 0 18 -5
24 -17 22 -10 -2 -18 2 -18 9 0 16 -14 28 -33 28 -9 0 -16 6 -14 14 3 12 0 12
-13 1 -8 -7 -18 -10 -22 -6 -3 3 -1 6 5 6 7 0 12 5 12 11 0 5 -4 7 -10 4 -5
-3 -10 -1 -10 5 0 6 -4 8 -10 5 -5 -3 -10 0 -10 7 0 9 -3 9 -10 -2 -9 -13 -10
-13 -11 0 -1 8 -1 21 0 29 2 7 -4 11 -11 8 -7 -2 -12 -10 -10 -16 1 -7 -2 -10
-8 -6 -6 3 -8 10 -5 15 8 13 -17 18 -41 9 -14 -5 -28 -3 -39 4 -15 12 -15 13
4 13 11 0 17 -5 14 -11 -4 -5 -2 -6 2 -2 24 21 11 34 -32 33 -25 -1 -47 3 -50
7 -2 4 -14 5 -26 2 -12 -2 -16 -2 -9 1 6 3 12 12 12 20 0 10 -12 13 -47 11
-36 -1 -47 1 -45 11 2 9 -2 11 -10 5 -22 -14 -75 -12 -75 3 0 17 9 18 26 2 9
-9 12 -9 7 -1 -3 6 0 13 6 16 7 2 -97 5 -232 6 -231 2 -246 1 -257 -17z m17
-12 c0 -5 -5 -10 -11 -10 -5 0 -7 5 -4 10 3 6 8 10 11 10 2 0 4 -4 4 -10z
m1200 -446 c0 -8 -19 -13 -24 -6 -3 5 1 9 9 9 8 0 15 -2 15 -3z m120 -165 c0
-5 -4 -9 -10 -9 -5 0 -10 7 -10 16 0 8 5 12 10 9 6 -3 10 -10 10 -16z m-2233
-41 c-3 -8 -6 -5 -6 6 -1 11 2 17 5 13 3 -3 4 -12 1 -19z m2236 7 c-3 -9 -8
-14 -10 -11 -3 3 -2 9 2 15 9 16 15 13 8 -4z m76 -118 c8 -10 7 -14 -2 -14 -8
0 -14 6 -14 14 0 7 1 13 2 13 2 0 8 -6 14 -13z m-2379 -41 c0 -11 -19 -15 -25
-6 -3 5 1 10 9 10 9 0 16 -2 16 -4z m2419 -44 c8 -14 6 -19 -5 -19 -7 0 -14 9
-14 19 0 10 2 18 5 18 2 0 9 -8 14 -18z m5 -40 c3 -5 -1 -9 -9 -9 -8 0 -12 4
-9 9 3 4 7 8 9 8 2 0 6 -4 9 -8z m3 -37 c0 -8 -4 -12 -9 -9 -5 3 -6 10 -3 15
9 13 12 11 12 -6z m0 -737 c-3 -7 -5 -2 -5 12 0 14 2 19 5 13 2 -7 2 -19 0
-25z m-162 -318 c-3 -5 -13 -6 -21 -3 -12 4 -13 8 -3 14 15 9 32 2 24 -11z
m-2114 -43 c-10 -9 -11 -8 -5 6 3 10 9 15 12 12 3 -3 0 -11 -7 -18z m496 -392
c0 -8 -4 -15 -9 -15 -10 0 -11 14 -1 23 9 10 10 9 10 -8z m1006 -48 c3 -8 0
-14 -7 -14 -7 0 -13 6 -13 14 0 7 4 13 8 13 4 0 9 -6 12 -13z"/>
<path d="M1595 2589 c-4 -6 -5 -12 -2 -15 2 -3 7 2 10 11 7 17 1 20 -8 4z"/>
<path d="M1724 2549 c-4 -7 -3 -9 4 -5 5 3 13 0 15 -6 4 -9 6 -10 6 -1 1 17
-16 25 -25 12z"/>
<path d="M2125 2300 c3 -5 10 -10 16 -10 5 0 9 5 9 10 0 6 -7 10 -16 10 -8 0
-12 -4 -9 -10z"/>
<path d="M2579 1603 c-13 -16 -12 -17 4 -4 16 13 21 21 13 21 -2 0 -10 -8 -17
-17z"/>
<path d="M6 1494 c-5 -14 -4 -15 9 -4 17 14 19 20 6 20 -5 0 -12 -7 -15 -16z"/>
<path d="M15 1120 c-3 -5 -1 -10 4 -10 6 0 11 5 11 10 0 6 -2 10 -4 10 -3 0
-8 -4 -11 -10z"/>
<path d="M7 1084 c6 -15 23 -19 23 -5 0 5 -7 11 -14 14 -10 4 -13 1 -9 -9z"/>
<path d="M2577 1043 c-10 -10 -8 -23 4 -23 5 0 8 4 5 9 -4 5 0 12 6 14 7 3 8
6 2 6 -6 1 -14 -2 -17 -6z"/>
<path d="M0 1036 c0 -2 7 -7 16 -10 8 -3 12 -2 9 4 -6 10 -25 14 -25 6z"/>
<path d="M812 101 c4 -13 18 -16 19 -4 0 4 -5 9 -11 12 -7 2 -11 -2 -8 -8z"/>
<path d="M1090 21 c0 -5 -8 -12 -17 -14 -15 -4 -15 -5 -2 -6 9 0 22 6 29 14 9
10 9 15 1 15 -6 0 -11 -4 -11 -9z"/>
<path d="M1130 25 c0 -7 30 -13 34 -7 3 4 -4 9 -15 9 -10 1 -19 0 -19 -2z"/>
<path d="M1506 13 c-6 -14 -5 -15 5 -6 7 7 10 15 7 18 -3 3 -9 -2 -12 -12z"/>
<path d="M1537 23 c-4 -3 -7 -11 -7 -17 0 -6 5 -5 12 2 6 6 9 14 7 17 -3 3 -9
2 -12 -2z"/>
<path d="M1118 3 c7 -3 16 -2 19 1 4 3 -2 6 -13 5 -11 0 -14 -3 -6 -6z"/>
</g>
</svg>
